<mxfile host="app.diagrams.net" modified="2024-03-26T12:00:07.984Z" agent="Mozilla/5.0 (Windows NT 10.0; Win64; x64) AppleWebKit/537.36 (KHTML, like Gecko) Chrome/123.0.0.0 Safari/537.36" version="24.1.0" etag="_AIDTSzzPYmfeZPcnJj9" type="github">
  <diagram name="Page-1" id="UGAyzT8rciiFniJ-YuEJ">
    <mxGraphModel>
      <root>
        <mxCell id="0" />
        <mxCell id="1" parent="0" />
      </root>
    </mxGraphModel>
  </diagram>
</mxfile>
